<mxfile host="app.diagrams.net" modified="2020-12-22T10:00:12.113Z" agent="5.0 (Macintosh; Intel Mac OS X 10_15_7) AppleWebKit/537.36 (KHTML, like Gecko) Chrome/84.0.4147.105 Safari/537.36" etag="7ZsMIOsJEEFT4qsAOw8C" version="14.1.1" type="github" pages="3">
  <diagram id="Ezf2xozEbTHmqeJ5TG5X" name="MAIN PAGE">
    <mxGraphModel dx="946" dy="622" grid="1" gridSize="10" guides="1" tooltips="1" connect="1" arrows="1" fold="1" page="1" pageScale="1" pageWidth="850" pageHeight="1100" math="0" shadow="0">
      <root>
        <mxCell id="0" />
        <mxCell id="1" parent="0" />
      </root>
    </mxGraphModel>
  </diagram>
  <diagram id="rqdF4-ba1p3inDI9vvdh" name="WB">
    <mxGraphModel dx="946" dy="622" grid="1" gridSize="10" guides="1" tooltips="1" connect="1" arrows="1" fold="1" page="1" pageScale="1" pageWidth="850" pageHeight="1100" math="0" shadow="0">
      <root>
        <mxCell id="11t00iMbkhRj_psAAcLW-0" />
        <mxCell id="11t00iMbkhRj_psAAcLW-1" parent="11t00iMbkhRj_psAAcLW-0" />
        <mxCell id="lQEuquYQpxwccHK5Gv7n-5" value="" style="rounded=0;whiteSpace=wrap;html=1;" vertex="1" parent="11t00iMbkhRj_psAAcLW-1">
          <mxGeometry x="40" y="575" width="830" height="65" as="geometry" />
        </mxCell>
        <mxCell id="lQEuquYQpxwccHK5Gv7n-4" style="edgeStyle=orthogonalEdgeStyle;rounded=0;orthogonalLoop=1;jettySize=auto;html=1;entryX=0;entryY=0.5;entryDx=0;entryDy=0;" edge="1" parent="11t00iMbkhRj_psAAcLW-1" source="gyIzzF3QgkATX3K4TAfc-0" target="gyIzzF3QgkATX3K4TAfc-24">
          <mxGeometry relative="1" as="geometry" />
        </mxCell>
        <mxCell id="gyIzzF3QgkATX3K4TAfc-0" value="&lt;font color=&quot;#0000cc&quot;&gt;LOGIN&lt;/font&gt;&lt;br&gt;" style="rounded=0;whiteSpace=wrap;html=1;" parent="11t00iMbkhRj_psAAcLW-1" vertex="1">
          <mxGeometry x="40" y="240" width="120" height="60" as="geometry" />
        </mxCell>
        <mxCell id="lQEuquYQpxwccHK5Gv7n-0" style="edgeStyle=orthogonalEdgeStyle;rounded=0;orthogonalLoop=1;jettySize=auto;html=1;entryX=0.5;entryY=0;entryDx=0;entryDy=0;" edge="1" parent="11t00iMbkhRj_psAAcLW-1" source="gyIzzF3QgkATX3K4TAfc-1" target="gyIzzF3QgkATX3K4TAfc-24">
          <mxGeometry relative="1" as="geometry">
            <Array as="points">
              <mxPoint x="489" y="180" />
            </Array>
          </mxGeometry>
        </mxCell>
        <mxCell id="gyIzzF3QgkATX3K4TAfc-1" value="&lt;font color=&quot;#3c00ff&quot;&gt;REGISTER&lt;/font&gt;" style="rounded=0;whiteSpace=wrap;html=1;" parent="11t00iMbkhRj_psAAcLW-1" vertex="1">
          <mxGeometry x="40" y="150" width="120" height="60" as="geometry" />
        </mxCell>
        <mxCell id="lQEuquYQpxwccHK5Gv7n-3" style="edgeStyle=orthogonalEdgeStyle;rounded=0;orthogonalLoop=1;jettySize=auto;html=1;entryX=0.5;entryY=1;entryDx=0;entryDy=0;" edge="1" parent="11t00iMbkhRj_psAAcLW-1" source="gyIzzF3QgkATX3K4TAfc-2" target="gyIzzF3QgkATX3K4TAfc-24">
          <mxGeometry relative="1" as="geometry" />
        </mxCell>
        <mxCell id="gyIzzF3QgkATX3K4TAfc-2" value="&lt;font color=&quot;#0000cc&quot;&gt;PROFILE&lt;/font&gt;" style="rounded=0;whiteSpace=wrap;html=1;" parent="11t00iMbkhRj_psAAcLW-1" vertex="1">
          <mxGeometry x="40" y="400" width="120" height="60" as="geometry" />
        </mxCell>
        <mxCell id="lQEuquYQpxwccHK5Gv7n-8" style="edgeStyle=orthogonalEdgeStyle;rounded=0;orthogonalLoop=1;jettySize=auto;html=1;" edge="1" parent="11t00iMbkhRj_psAAcLW-1" source="gyIzzF3QgkATX3K4TAfc-3" target="C7IiQCmhpGwBYoQ0eqYk-4">
          <mxGeometry relative="1" as="geometry" />
        </mxCell>
        <mxCell id="gyIzzF3QgkATX3K4TAfc-3" value="&lt;font color=&quot;#0000cc&quot;&gt;DONATION&lt;/font&gt;" style="rounded=0;whiteSpace=wrap;html=1;" parent="11t00iMbkhRj_psAAcLW-1" vertex="1">
          <mxGeometry x="40" y="490" width="120" height="60" as="geometry" />
        </mxCell>
        <mxCell id="gyIzzF3QgkATX3K4TAfc-10" value="" style="rounded=0;whiteSpace=wrap;html=1;" parent="11t00iMbkhRj_psAAcLW-1" vertex="1">
          <mxGeometry x="40" y="710" width="180" height="150" as="geometry" />
        </mxCell>
        <mxCell id="gyIzzF3QgkATX3K4TAfc-11" value="" style="rounded=0;whiteSpace=wrap;html=1;" parent="11t00iMbkhRj_psAAcLW-1" vertex="1">
          <mxGeometry x="339" y="725" width="210" height="110" as="geometry" />
        </mxCell>
        <mxCell id="gyIzzF3QgkATX3K4TAfc-12" value="&lt;font style=&quot;font-size: 12px&quot; color=&quot;#0000cc&quot;&gt;URUNAN&lt;/font&gt;" style="rounded=0;whiteSpace=wrap;html=1;" parent="11t00iMbkhRj_psAAcLW-1" vertex="1">
          <mxGeometry x="50" y="730" width="70" height="20" as="geometry" />
        </mxCell>
        <mxCell id="gyIzzF3QgkATX3K4TAfc-18" style="edgeStyle=orthogonalEdgeStyle;rounded=0;orthogonalLoop=1;jettySize=auto;html=1;entryX=0;entryY=0.133;entryDx=0;entryDy=0;entryPerimeter=0;" parent="11t00iMbkhRj_psAAcLW-1" source="gyIzzF3QgkATX3K4TAfc-13" target="gyIzzF3QgkATX3K4TAfc-11" edge="1">
          <mxGeometry relative="1" as="geometry" />
        </mxCell>
        <mxCell id="gyIzzF3QgkATX3K4TAfc-13" value="&lt;font style=&quot;font-size: 12px&quot; color=&quot;#0000cc&quot;&gt;CORE&lt;/font&gt;" style="rounded=0;whiteSpace=wrap;html=1;" parent="11t00iMbkhRj_psAAcLW-1" vertex="1">
          <mxGeometry x="130" y="730" width="70" height="20" as="geometry" />
        </mxCell>
        <mxCell id="gyIzzF3QgkATX3K4TAfc-14" value="&lt;font style=&quot;font-size: 12px&quot; color=&quot;#0000cc&quot;&gt;MANJUR&lt;/font&gt;" style="rounded=0;whiteSpace=wrap;html=1;" parent="11t00iMbkhRj_psAAcLW-1" vertex="1">
          <mxGeometry x="50" y="770" width="70" height="20" as="geometry" />
        </mxCell>
        <mxCell id="gyIzzF3QgkATX3K4TAfc-15" value="&lt;font style=&quot;font-size: 12px&quot; color=&quot;#0000cc&quot;&gt;TERAS&lt;/font&gt;&lt;span style=&quot;color: rgba(0 , 0 , 0 , 0) ; font-family: monospace ; font-size: 0px&quot;&gt;%3CmxGraphModel%3E%3Croot%3E%3CmxCell%20id%3D%220%22%2F%3E%3CmxCell%20id%3D%221%22%20parent%3D%220%22%2F%3E%3CmxCell%20id%3D%222%22%20value%3D%22%26lt%3Bfont%20style%3D%26quot%3Bfont-size%3A%2012px%26quot%3B%20color%3D%26quot%3B%230000cc%26quot%3B%26gt%3BURUNAN%26lt%3B%2Ffont%26gt%3B%22%20style%3D%22rounded%3D0%3BwhiteSpace%3Dwrap%3Bhtml%3D1%3B%22%20vertex%3D%221%22%20parent%3D%221%22%3E%3CmxGeometry%20x%3D%2250%22%20y%3D%22620%22%20width%3D%2270%22%20height%3D%2220%22%20as%3D%22geometry%22%2F%3E%3C%2FmxCell%3E%3C%2Froot%3E%3C%2FmxGraphModel%3E&lt;/span&gt;" style="rounded=0;whiteSpace=wrap;html=1;" parent="11t00iMbkhRj_psAAcLW-1" vertex="1">
          <mxGeometry x="130" y="770" width="70" height="20" as="geometry" />
        </mxCell>
        <mxCell id="gyIzzF3QgkATX3K4TAfc-16" value="&lt;font style=&quot;font-size: 12px&quot; color=&quot;#0000cc&quot;&gt;TUMAN&lt;/font&gt;" style="rounded=0;whiteSpace=wrap;html=1;" parent="11t00iMbkhRj_psAAcLW-1" vertex="1">
          <mxGeometry x="50" y="805" width="70" height="20" as="geometry" />
        </mxCell>
        <mxCell id="gyIzzF3QgkATX3K4TAfc-17" value="&lt;font style=&quot;font-size: 12px&quot; color=&quot;#0000cc&quot;&gt;WONG&lt;/font&gt;" style="rounded=0;whiteSpace=wrap;html=1;" parent="11t00iMbkhRj_psAAcLW-1" vertex="1">
          <mxGeometry x="130" y="805" width="70" height="20" as="geometry" />
        </mxCell>
        <mxCell id="gyIzzF3QgkATX3K4TAfc-20" value="&lt;font style=&quot;font-size: 12px&quot; color=&quot;#0000cc&quot;&gt;USERS&lt;/font&gt;&lt;span style=&quot;color: rgba(0 , 0 , 0 , 0) ; font-family: monospace ; font-size: 0px&quot;&gt;%3CmxGraphModel%3E%3Croot%3E%3CmxCell%20id%3D%220%22%2F%3E%3CmxCell%20id%3D%221%22%20parent%3D%220%22%2F%3E%3CmxCell%20id%3D%222%22%20value%3D%22%26lt%3Bfont%20style%3D%26quot%3Bfont-size%3A%2012px%26quot%3B%20color%3D%26quot%3B%230000cc%26quot%3B%26gt%3BURUNAN%26lt%3B%2Ffont%26gt%3B%22%20style%3D%22rounded%3D0%3BwhiteSpace%3Dwrap%3Bhtml%3D1%3B%22%20vertex%3D%221%22%20parent%3D%221%22%3E%3CmxGeometry%20x%3D%2250%22%20y%3D%22620%22%20width%3D%2270%22%20height%3D%2220%22%20as%3D%22geometry%22%2F%3E%3C%2FmxCell%3E%3C%2Froot%3E%3C%2FmxGraphModel%3E&lt;/span&gt;" style="rounded=0;whiteSpace=wrap;html=1;" parent="11t00iMbkhRj_psAAcLW-1" vertex="1">
          <mxGeometry x="350" y="730" width="70" height="20" as="geometry" />
        </mxCell>
        <mxCell id="gyIzzF3QgkATX3K4TAfc-21" value="&lt;font style=&quot;font-size: 12px&quot; color=&quot;#0000cc&quot;&gt;CAMPAIGN&lt;/font&gt;" style="rounded=0;whiteSpace=wrap;html=1;" parent="11t00iMbkhRj_psAAcLW-1" vertex="1">
          <mxGeometry x="430" y="730" width="70" height="20" as="geometry" />
        </mxCell>
        <mxCell id="gyIzzF3QgkATX3K4TAfc-22" value="&lt;font color=&quot;#0000cc&quot;&gt;GENI&lt;/font&gt;" style="rounded=0;whiteSpace=wrap;html=1;" parent="11t00iMbkhRj_psAAcLW-1" vertex="1">
          <mxGeometry x="40" y="680" width="120" height="20" as="geometry" />
        </mxCell>
        <mxCell id="gyIzzF3QgkATX3K4TAfc-23" value="&lt;font color=&quot;#0000cc&quot;&gt;CORE&lt;/font&gt;" style="rounded=0;whiteSpace=wrap;html=1;" parent="11t00iMbkhRj_psAAcLW-1" vertex="1">
          <mxGeometry x="340" y="690" width="120" height="20" as="geometry" />
        </mxCell>
        <mxCell id="C7IiQCmhpGwBYoQ0eqYk-8" style="edgeStyle=orthogonalEdgeStyle;rounded=0;orthogonalLoop=1;jettySize=auto;html=1;entryX=0;entryY=0.5;entryDx=0;entryDy=0;" edge="1" parent="11t00iMbkhRj_psAAcLW-1" source="gyIzzF3QgkATX3K4TAfc-24" target="C7IiQCmhpGwBYoQ0eqYk-0">
          <mxGeometry relative="1" as="geometry" />
        </mxCell>
        <mxCell id="gyIzzF3QgkATX3K4TAfc-24" value="&lt;font color=&quot;#0000cc&quot;&gt;WONG&lt;/font&gt;" style="rounded=1;whiteSpace=wrap;html=1;" parent="11t00iMbkhRj_psAAcLW-1" vertex="1">
          <mxGeometry x="430" y="245" width="120" height="50" as="geometry" />
        </mxCell>
        <mxCell id="gyIzzF3QgkATX3K4TAfc-26" value="&lt;font color=&quot;#0000cc&quot;&gt;URUNAN&lt;/font&gt;" style="rounded=1;whiteSpace=wrap;html=1;" parent="11t00iMbkhRj_psAAcLW-1" vertex="1">
          <mxGeometry x="220" y="590" width="120" height="30" as="geometry" />
        </mxCell>
        <mxCell id="gyIzzF3QgkATX3K4TAfc-28" value="&lt;font color=&quot;#0000cc&quot;&gt;TERAS&lt;/font&gt;" style="rounded=1;whiteSpace=wrap;html=1;" parent="11t00iMbkhRj_psAAcLW-1" vertex="1">
          <mxGeometry x="250" y="90" width="120" height="30" as="geometry" />
        </mxCell>
        <mxCell id="gyIzzF3QgkATX3K4TAfc-30" value="&lt;font color=&quot;#0000cc&quot;&gt;GENI&lt;/font&gt;" style="rounded=0;whiteSpace=wrap;html=1;" parent="11t00iMbkhRj_psAAcLW-1" vertex="1">
          <mxGeometry x="350" y="50" width="100" height="20" as="geometry" />
        </mxCell>
        <mxCell id="C7IiQCmhpGwBYoQ0eqYk-0" value="Phone number, status user, email, profile, OTP" style="rounded=0;whiteSpace=wrap;html=1;" vertex="1" parent="11t00iMbkhRj_psAAcLW-1">
          <mxGeometry x="640" y="240" width="135" height="60" as="geometry" />
        </mxCell>
        <mxCell id="C7IiQCmhpGwBYoQ0eqYk-3" value="KBSJ" style="rounded=0;whiteSpace=wrap;html=1;" vertex="1" parent="11t00iMbkhRj_psAAcLW-1">
          <mxGeometry x="360" y="590" width="120" height="30" as="geometry" />
        </mxCell>
        <mxCell id="lQEuquYQpxwccHK5Gv7n-7" style="edgeStyle=orthogonalEdgeStyle;rounded=0;orthogonalLoop=1;jettySize=auto;html=1;" edge="1" parent="11t00iMbkhRj_psAAcLW-1" source="C7IiQCmhpGwBYoQ0eqYk-4" target="lQEuquYQpxwccHK5Gv7n-6">
          <mxGeometry relative="1" as="geometry" />
        </mxCell>
        <mxCell id="C7IiQCmhpGwBYoQ0eqYk-4" value="DONASI RUTIN" style="rounded=0;whiteSpace=wrap;html=1;" vertex="1" parent="11t00iMbkhRj_psAAcLW-1">
          <mxGeometry x="240" y="505" width="120" height="30" as="geometry" />
        </mxCell>
        <mxCell id="C7IiQCmhpGwBYoQ0eqYk-6" value="LANDING PAGE" style="rounded=0;whiteSpace=wrap;html=1;" vertex="1" parent="11t00iMbkhRj_psAAcLW-1">
          <mxGeometry x="390" y="90" width="120" height="30" as="geometry" />
        </mxCell>
        <mxCell id="lQEuquYQpxwccHK5Gv7n-2" style="edgeStyle=orthogonalEdgeStyle;rounded=0;orthogonalLoop=1;jettySize=auto;html=1;entryX=0.25;entryY=1;entryDx=0;entryDy=0;" edge="1" parent="11t00iMbkhRj_psAAcLW-1" source="C7IiQCmhpGwBYoQ0eqYk-10" target="gyIzzF3QgkATX3K4TAfc-24">
          <mxGeometry relative="1" as="geometry" />
        </mxCell>
        <mxCell id="C7IiQCmhpGwBYoQ0eqYk-10" value="&lt;font color=&quot;#0000cc&quot;&gt;LOGOUT&lt;/font&gt;" style="rounded=0;whiteSpace=wrap;html=1;" vertex="1" parent="11t00iMbkhRj_psAAcLW-1">
          <mxGeometry x="40" y="320" width="120" height="60" as="geometry" />
        </mxCell>
        <mxCell id="lQEuquYQpxwccHK5Gv7n-6" value="&lt;font color=&quot;#0000cc&quot;&gt;TUMAN&lt;/font&gt;" style="rounded=1;whiteSpace=wrap;html=1;" vertex="1" parent="11t00iMbkhRj_psAAcLW-1">
          <mxGeometry x="430" y="505" width="120" height="30" as="geometry" />
        </mxCell>
      </root>
    </mxGraphModel>
  </diagram>
  <diagram id="XaVpVDt7Qa0TTG05Uxae" name="BAYU">
    <mxGraphModel grid="1" gridSize="10" guides="1" tooltips="1" connect="1" arrows="1" page="1" fold="1" pageScale="1" pageWidth="850" pageHeight="1100" math="0" shadow="0">
      <root>
        <mxCell id="rQLQ0YM59egq8YVtbZnR-0" />
        <mxCell id="rQLQ0YM59egq8YVtbZnR-1" parent="rQLQ0YM59egq8YVtbZnR-0" />
        <mxCell id="ya7SYcTqwErl_7KQ1qiX-0" value="Kulonuwun" style="shape=cylinder3;whiteSpace=wrap;html=1;boundedLbl=1;backgroundOutline=1;size=15;" vertex="1" parent="rQLQ0YM59egq8YVtbZnR-1">
          <mxGeometry x="330" y="70" width="70" height="90" as="geometry" />
        </mxCell>
        <mxCell id="ya7SYcTqwErl_7KQ1qiX-1" value="Kitabisa Core Staging" style="shape=cylinder3;whiteSpace=wrap;html=1;boundedLbl=1;backgroundOutline=1;size=15;" vertex="1" parent="rQLQ0YM59egq8YVtbZnR-1">
          <mxGeometry x="480" y="70" width="70" height="90" as="geometry" />
        </mxCell>
        <mxCell id="ya7SYcTqwErl_7KQ1qiX-2" value="" style="shape=flexArrow;endArrow=classic;html=1;" edge="1" parent="rQLQ0YM59egq8YVtbZnR-1">
          <mxGeometry width="50" height="50" relative="1" as="geometry">
            <mxPoint x="510" y="170" as="sourcePoint" />
            <mxPoint x="475.7142857142858" y="230" as="targetPoint" />
          </mxGeometry>
        </mxCell>
        <mxCell id="ya7SYcTqwErl_7KQ1qiX-3" value="" style="shape=flexArrow;endArrow=classic;html=1;" edge="1" parent="rQLQ0YM59egq8YVtbZnR-1">
          <mxGeometry width="50" height="50" relative="1" as="geometry">
            <mxPoint x="360" y="170" as="sourcePoint" />
            <mxPoint x="420" y="240" as="targetPoint" />
          </mxGeometry>
        </mxCell>
        <mxCell id="ya7SYcTqwErl_7KQ1qiX-4" value="&lt;h1&gt;Donor Acquisition Staging&lt;/h1&gt;&lt;p&gt;Here is the diagram for Donor Acquisition Staging system&lt;/p&gt;" style="text;html=1;strokeColor=none;fillColor=none;spacing=5;spacingTop=-20;whiteSpace=wrap;overflow=hidden;rounded=0;direction=south;" vertex="1" parent="rQLQ0YM59egq8YVtbZnR-1">
          <mxGeometry x="55" y="5" width="140" height="175" as="geometry" />
        </mxCell>
      </root>
    </mxGraphModel>
  </diagram>
</mxfile>
